<?xml version="1.0" standalone="no"?>
<!DOCTYPE svg PUBLIC "-//W3C//DTD SVG 20010904//EN"
 "http://www.w3.org/TR/2001/REC-SVG-20010904/DTD/svg10.dtd">
<svg version="1.0" xmlns="http://www.w3.org/2000/svg"
 width="2128.000000pt" height="2128.000000pt" viewBox="0 0 2128.000000 2128.000000"
 preserveAspectRatio="xMidYMid meet">
<metadata>
Created by potrace 1.11, written by Peter Selinger 2001-2013
</metadata>
<g transform="translate(0.000000,2128.000000) scale(0.100000,-0.100000)"
fill="#000000" stroke="none">
<path d="M10530 18920 c0 -5 -13 -7 -30 -5 -16 2 -30 0 -30 -4 0 -4 -14 -8
-31 -9 -18 -1 -37 -6 -43 -9 -6 -4 -17 -8 -26 -9 -32 -5 -50 -10 -56 -17 -4
-4 -16 -7 -26 -7 -10 0 -18 -4 -18 -9 0 -6 -9 -8 -20 -6 -11 2 -20 0 -20 -4 0
-5 -10 -12 -22 -16 -13 -4 -27 -9 -33 -11 -5 -2 -27 -9 -47 -16 -21 -7 -38
-16 -38 -20 0 -5 -4 -8 -10 -8 -5 0 -35 -12 -67 -26 -32 -15 -60 -26 -62 -25
-2 2 -7 -1 -10 -6 -7 -10 -122 -67 -136 -68 -5 0 -12 -3 -15 -6 -3 -3 -50 -30
-105 -59 -55 -28 -105 -56 -111 -61 -6 -5 -14 -6 -17 -2 -4 3 -7 1 -7 -5 0 -7
-7 -12 -15 -12 -8 0 -15 -5 -15 -12 0 -6 -3 -9 -6 -5 -7 7 -115 -51 -126 -67
-4 -6 -8 -8 -8 -4 0 3 -19 -4 -42 -17 -24 -14 -58 -31 -75 -39 -18 -8 -33 -20
-33 -26 0 -6 -4 -9 -9 -5 -5 3 -12 1 -16 -5 -4 -6 -11 -8 -16 -5 -5 4 -9 2 -9
-3 0 -6 -12 -15 -27 -21 -16 -6 -37 -16 -48 -23 -79 -49 -95 -58 -95 -52 0 4
-7 0 -16 -7 -18 -15 -41 -29 -94 -55 -19 -10 -41 -24 -48 -31 -7 -7 -18 -13
-23 -13 -5 0 -27 -11 -48 -24 -21 -14 -42 -22 -45 -19 -3 4 -6 1 -6 -5 0 -7
-15 -18 -32 -26 -35 -16 -109 -57 -118 -66 -3 -3 -21 -13 -40 -24 -106 -57
-145 -80 -148 -88 -2 -4 -8 -8 -13 -8 -6 0 -55 -27 -110 -60 -55 -33 -102 -60
-105 -60 -3 0 -17 -8 -32 -19 -54 -36 -87 -55 -94 -53 -5 1 -8 -2 -8 -8 0 -5
-7 -10 -15 -10 -8 0 -15 -5 -15 -11 0 -5 -4 -8 -9 -5 -5 3 -14 -1 -21 -9 -7
-9 -29 -23 -49 -32 -20 -9 -44 -25 -53 -36 -9 -10 -19 -17 -21 -15 -3 2 -24
-9 -47 -24 -23 -16 -46 -28 -51 -28 -5 0 -9 -4 -9 -9 0 -5 -8 -11 -17 -15 -27
-8 -83 -43 -110 -66 -12 -11 -23 -17 -23 -15 0 3 -10 -3 -22 -15 -12 -11 -27
-20 -32 -20 -6 0 -23 -11 -38 -25 -15 -14 -29 -25 -32 -25 -2 0 -41 -22 -85
-50 -44 -27 -84 -50 -88 -50 -4 0 -33 -16 -63 -37 -113 -75 -126 -83 -138 -83
-7 0 -12 -4 -12 -10 0 -5 -5 -10 -11 -10 -6 0 -23 -8 -37 -19 -15 -10 -54 -33
-87 -51 -33 -18 -63 -37 -66 -42 -3 -5 -8 -8 -10 -7 -2 2 -41 -18 -86 -44 -45
-26 -87 -47 -93 -47 -5 0 -10 -3 -10 -8 0 -4 -21 -17 -47 -30 -27 -13 -66 -33
-88 -46 -44 -25 -139 -76 -255 -139 -41 -22 -79 -44 -85 -48 -5 -5 -17 -9 -26
-9 -10 0 -19 -3 -21 -7 -6 -15 -85 -53 -93 -45 -5 4 -6 2 -2 -3 3 -6 -28 -28
-71 -50 -42 -21 -79 -41 -82 -45 -3 -3 -21 -16 -40 -28 -20 -11 -46 -29 -57
-40 -12 -10 -34 -27 -48 -38 -15 -10 -32 -23 -39 -29 -6 -5 -43 -37 -81 -70
-39 -33 -91 -80 -117 -105 -25 -25 -62 -59 -82 -77 -20 -18 -36 -36 -36 -40 0
-4 -16 -24 -35 -43 -19 -19 -35 -40 -35 -47 0 -7 -4 -13 -9 -13 -20 0 -101
-212 -93 -242 1 -5 -2 -8 -7 -8 -5 0 -9 -10 -8 -22 0 -13 -5 -59 -12 -103 -13
-87 -18 -145 -25 -272 -2 -46 -7 -92 -11 -103 -4 -13 -2 -20 7 -20 8 0 9 -3 3
-8 -13 -9 -15 -19 -19 -112 -2 -43 -7 -83 -10 -89 -4 -6 -2 -11 4 -11 6 0 8
-5 4 -12 -4 -7 -9 -42 -11 -78 -2 -36 -6 -72 -9 -80 -4 -8 -7 -44 -8 -80 -1
-36 -5 -71 -10 -78 -4 -7 -2 -12 6 -12 8 0 9 -3 3 -8 -6 -4 -10 -156 -9 -422
0 -228 -4 -423 -8 -432 -5 -10 -5 -18 -1 -18 11 0 10 -121 -1 -138 -4 -6 -3
-12 1 -12 5 0 8 -29 8 -65 0 -36 -4 -65 -9 -65 -5 0 -4 -6 2 -12 13 -16 13
-28 1 -50 -6 -11 -6 -18 -1 -18 5 0 7 -12 5 -27 -2 -16 -4 -32 -4 -38 0 -5 2
-22 4 -37 2 -16 0 -28 -5 -28 -5 0 -6 -6 -2 -12 11 -18 12 -48 2 -48 -5 0 -6
-6 -2 -12 12 -19 12 -48 1 -48 -5 0 -5 -5 1 -13 7 -8 7 -18 2 -27 -5 -8 -5
-21 -1 -29 8 -18 7 -53 -2 -68 -3 -5 -2 -15 3 -23 5 -9 5 -19 -2 -27 -6 -7 -6
-13 -1 -13 5 0 9 -9 9 -20 0 -11 -4 -20 -8 -20 -5 0 -4 -9 2 -20 8 -15 8 -20
-1 -20 -8 0 -9 -4 0 -13 8 -10 7 -17 -1 -25 -7 -7 -8 -12 -2 -12 5 0 10 -9 10
-20 0 -11 -4 -20 -9 -20 -5 0 -5 -6 2 -13 8 -10 7 -17 -1 -25 -9 -9 -9 -12 0
-12 9 0 10 -5 3 -18 -6 -11 -6 -24 0 -35 7 -12 6 -17 -2 -17 -8 0 -8 -4 1 -15
10 -12 10 -15 0 -15 -10 0 -10 -3 0 -15 10 -12 10 -15 0 -15 -10 0 -10 -3 0
-15 10 -12 10 -15 0 -15 -10 0 -10 -3 0 -15 10 -12 10 -15 0 -15 -10 0 -10 -3
0 -15 10 -12 10 -15 0 -15 -10 0 -10 -3 0 -15 10 -12 10 -15 0 -15 -10 0 -10
-3 0 -15 10 -12 10 -15 0 -15 -9 0 -10 -3 -1 -13 8 -10 7 -17 -1 -25 -9 -9 -9
-12 1 -12 11 0 11 -3 1 -15 -10 -12 -10 -15 0 -15 10 0 10 -3 0 -15 -9 -11 -9
-15 -1 -15 8 0 9 -6 3 -17 -9 -19 -9 -54 1 -70 3 -5 2 -15 -3 -23 -5 -9 -5
-19 2 -27 6 -8 6 -13 1 -13 -5 0 -10 -7 -10 -15 0 -8 5 -15 10 -15 5 0 4 -7
-3 -15 -9 -11 -9 -15 -1 -15 7 0 9 -5 4 -12 -11 -19 -11 -58 0 -58 5 0 4 -6
-2 -14 -8 -10 -9 -16 -1 -21 7 -4 6 -13 -2 -28 -14 -26 -14 -27 4 -38 10 -7
10 -9 0 -9 -9 0 -10 -5 -2 -19 7 -14 7 -22 0 -26 -8 -5 -8 -11 -1 -19 6 -7 8
-16 4 -20 -11 -11 -10 -46 1 -46 6 0 5 -4 -2 -9 -15 -9 -15 -20 -1 -38 6 -7 6
-13 0 -17 -10 -7 -10 -24 2 -43 4 -6 3 -15 -3 -18 -8 -5 -8 -11 -1 -19 6 -7 8
-16 4 -20 -12 -12 -12 -36 0 -36 8 0 7 -3 -1 -9 -17 -11 -17 -21 0 -32 8 -6 9
-9 1 -9 -12 0 -12 -17 0 -37 4 -6 3 -14 -2 -17 -10 -7 -9 -25 2 -42 3 -6 3
-14 0 -18 -12 -12 -12 -36 0 -36 8 0 8 -3 2 -8 -15 -11 -17 -32 -3 -32 10 0
10 -2 0 -9 -17 -11 -17 -21 0 -32 8 -6 9 -9 1 -9 -12 0 -12 -17 0 -37 4 -6 3
-14 -2 -17 -10 -7 -9 -25 2 -42 3 -6 3 -14 0 -18 -12 -12 -12 -36 0 -36 8 0 8
-3 2 -8 -14 -10 -14 -72 -1 -72 8 0 8 -3 1 -8 -14 -9 -14 -45 0 -54 7 -5 7 -8
0 -8 -6 0 -11 -11 -11 -25 0 -14 5 -25 11 -25 7 0 7 -3 0 -8 -6 -4 -11 -16
-11 -27 0 -11 5 -23 11 -27 7 -5 6 -8 -1 -8 -12 0 -13 -45 -1 -56 4 -4 3 -12
-2 -18 -14 -17 -14 -28 1 -37 7 -5 8 -9 2 -9 -12 0 -13 -38 -1 -56 3 -6 3 -14
0 -18 -12 -12 -12 -36 0 -36 8 0 8 -3 2 -8 -13 -9 -14 -55 0 -64 7 -5 6 -8 -2
-8 -12 0 -12 -17 0 -36 3 -6 3 -14 0 -18 -12 -12 -11 -56 1 -56 7 0 8 -3 1 -8
-6 -4 -11 -16 -11 -27 0 -11 5 -23 11 -27 7 -5 7 -8 0 -8 -6 0 -11 -11 -11
-25 0 -14 5 -25 11 -25 7 0 7 -3 0 -8 -14 -9 -14 -45 0 -54 7 -5 7 -8 0 -8 -6
0 -11 -11 -11 -25 0 -14 5 -25 11 -25 7 0 7 -3 0 -8 -6 -4 -11 -16 -11 -27 0
-11 5 -23 11 -27 7 -5 6 -8 -1 -8 -6 0 -11 -11 -11 -25 0 -14 5 -25 11 -25 7
0 8 -3 1 -8 -14 -9 -14 -45 0 -54 6 -5 5 -8 -3 -8 -14 0 -12 -36 2 -59 6 -10
5 -12 -3 -7 -14 9 -11 -30 3 -53 6 -10 5 -12 -3 -7 -14 9 -11 -30 3 -53 6 -9
5 -12 -2 -7 -14 8 -12 -34 2 -53 8 -11 8 -13 -1 -8 -15 9 -14 -32 1 -52 8 -11
8 -13 -1 -8 -15 9 -14 -32 1 -52 8 -11 8 -13 -1 -8 -15 9 -14 -32 1 -52 8 -11
8 -13 0 -8 -14 8 -14 -60 0 -82 6 -9 5 -12 -1 -8 -6 4 -10 -9 -10 -33 0 -22 5
-40 11 -40 8 0 8 -2 0 -8 -6 -4 -11 -23 -11 -42 0 -19 5 -38 11 -42 8 -6 8 -8
0 -8 -14 0 -13 -68 0 -89 6 -9 5 -12 -1 -8 -6 4 -10 -13 -9 -43 0 -47 2 -50
64 -107 35 -32 82 -74 103 -94 22 -20 39 -35 39 -33 0 2 11 -7 24 -19 68 -64
108 -97 115 -97 5 0 14 -7 21 -14 6 -8 55 -47 108 -87 53 -40 102 -77 107 -84
6 -6 30 -25 55 -42 25 -17 55 -41 67 -52 12 -12 27 -21 33 -21 5 0 10 -3 10
-7 0 -5 17 -19 38 -33 20 -14 44 -33 53 -42 9 -10 21 -18 27 -18 6 0 12 -4 14
-8 5 -12 134 -113 228 -177 47 -32 88 -64 92 -69 4 -6 8 -7 8 -3 0 5 7 1 16
-7 8 -9 37 -30 62 -48 26 -18 52 -36 57 -40 6 -5 35 -26 65 -48 30 -22 60 -44
67 -50 7 -5 16 -10 22 -10 5 0 11 -3 13 -7 5 -12 66 -53 78 -53 6 0 9 -4 6 -9
-3 -5 5 -12 19 -15 14 -4 25 -11 25 -16 0 -6 4 -10 9 -10 12 0 145 -82 149
-92 2 -4 10 -4 18 -1 8 3 14 0 14 -6 0 -6 7 -11 15 -11 8 0 15 -5 15 -11 0 -5
5 -7 10 -4 6 3 10 1 10 -5 0 -6 4 -9 9 -5 5 3 12 1 16 -4 3 -6 35 -24 70 -42
36 -17 65 -36 65 -40 0 -5 7 -9 15 -9 14 0 78 -32 101 -51 6 -5 14 -6 17 -2 4
3 7 2 7 -4 0 -6 12 -16 28 -22 15 -6 50 -24 77 -41 28 -17 57 -33 65 -37 8 -4
17 -9 20 -12 3 -3 25 -17 50 -30 25 -14 47 -27 50 -30 5 -6 25 -18 75 -46 11
-6 46 -29 79 -50 32 -22 67 -45 78 -51 11 -6 30 -21 44 -33 13 -11 24 -19 24
-16 0 2 37 -23 83 -56 111 -80 375 -259 382 -259 3 0 15 -9 27 -20 12 -11 34
-26 50 -32 15 -7 28 -16 28 -20 0 -5 7 -8 15 -8 8 0 15 -4 15 -10 0 -5 6 -10
14 -10 8 0 21 -6 28 -13 7 -7 45 -30 83 -52 39 -21 72 -41 75 -45 3 -4 15 -10
27 -14 13 -4 29 -13 36 -19 7 -7 44 -28 82 -47 39 -19 72 -38 75 -41 3 -3 33
-19 68 -35 34 -15 62 -32 62 -37 0 -4 4 -6 9 -2 5 3 16 -2 24 -10 9 -8 20 -15
26 -15 5 0 40 -16 77 -35 37 -19 73 -35 81 -35 8 0 11 -5 8 -10 -3 -6 0 -10 8
-10 8 0 27 -7 43 -14 15 -8 31 -13 36 -10 4 3 8 2 8 -3 0 -4 15 -14 33 -22 17
-8 50 -22 72 -32 93 -41 205 -60 205 -36 0 6 3 8 6 4 9 -9 114 87 114 105 0 4
6 13 14 21 21 21 97 171 99 196 1 11 4 21 7 21 4 0 7 6 8 13 0 6 3 23 7 37 18
67 -2 136 -41 146 -13 3 -24 11 -24 17 0 6 -3 8 -6 4 -3 -3 -41 16 -83 42 -42
26 -87 54 -101 62 -14 8 -27 16 -30 19 -3 3 -25 19 -50 35 -25 16 -47 32 -50
35 -3 4 -21 16 -40 28 -20 11 -49 32 -65 46 -17 14 -33 26 -37 26 -8 0 -36 21
-63 48 -8 6 -16 12 -19 12 -5 0 -77 52 -119 86 -9 8 -22 14 -27 14 -6 0 -10 5
-10 10 0 6 -7 13 -16 17 -9 3 -28 17 -42 30 -14 13 -27 21 -30 18 -3 -3 -12 4
-19 15 -8 11 -18 18 -23 15 -4 -3 -10 -1 -12 4 -4 12 -154 111 -168 111 -5 0
-10 4 -10 8 0 4 -12 13 -27 19 -16 7 -35 17 -43 22 -8 6 -69 42 -135 80 -66
39 -125 75 -132 80 -7 6 -17 11 -23 11 -5 0 -10 5 -10 10 0 6 -6 10 -13 10 -7
0 -22 8 -33 19 -11 10 -30 22 -42 25 -12 4 -22 11 -22 16 0 5 -15 16 -34 25
-19 9 -42 25 -52 36 -9 10 -23 19 -31 19 -7 0 -16 7 -19 15 -4 8 -12 15 -19
15 -10 0 -23 9 -71 49 -7 5 -14 7 -18 4 -3 -3 -8 2 -12 11 -3 9 -10 14 -14 11
-4 -2 -15 4 -25 15 -10 11 -24 20 -32 20 -7 0 -13 4 -13 9 0 5 -14 14 -30 21
-16 7 -30 16 -30 21 0 5 -7 9 -16 9 -8 0 -12 5 -9 10 4 6 2 9 -3 8 -13 -4 -92
44 -92 54 0 5 -7 8 -15 8 -8 0 -15 5 -15 10 0 6 -7 10 -15 10 -8 0 -15 5 -15
10 0 6 -7 10 -15 10 -8 0 -15 4 -15 8 0 5 -12 15 -27 23 -16 7 -36 20 -45 29
-33 29 -45 38 -76 54 -18 9 -32 21 -32 26 0 6 -5 10 -11 10 -6 0 -17 6 -24 13
-32 28 -45 37 -52 37 -5 0 -16 9 -26 20 -9 11 -23 20 -31 20 -8 0 -16 4 -18 8
-3 9 -275 192 -284 192 -3 0 -12 7 -21 15 -8 8 -19 13 -24 10 -5 -4 -9 -2 -9
3 0 5 -20 20 -45 33 -25 13 -45 27 -45 31 0 5 -7 8 -15 8 -8 0 -15 5 -15 12 0
6 -3 8 -6 5 -4 -3 -18 3 -32 13 -13 11 -31 20 -38 20 -8 0 -14 5 -14 10 0 6
-8 14 -17 17 -10 4 -58 34 -107 67 -49 34 -96 66 -105 71 -9 6 -18 12 -21 15
-3 3 -25 21 -50 40 -25 19 -46 38 -48 42 -2 5 -10 8 -18 8 -8 0 -14 5 -14 10
0 6 -7 10 -15 10 -8 0 -15 3 -15 8 0 4 -44 36 -96 72 -53 36 -109 75 -124 87
-15 13 -33 23 -39 23 -6 0 -11 5 -11 11 0 5 -4 7 -10 4 -5 -3 -10 -2 -10 2 0
5 -18 19 -40 33 -22 14 -40 28 -40 32 0 5 -5 8 -12 8 -14 0 -157 116 -178 144
-25 35 -40 68 -35 76 3 5 1 10 -4 12 -5 1 -12 19 -14 38 -3 19 -6 35 -7 35 -1
0 -4 81 -6 180 -8 363 -8 540 -1 552 4 6 4 14 -1 17 -5 3 -7 24 -6 48 1 24 -3
46 -9 50 -8 5 -8 8 -1 8 13 0 13 338 0 359 -7 10 -6 12 4 6 10 -6 12 -3 8 12
-3 11 -1 28 5 38 6 11 6 15 0 12 -6 -4 -9 50 -8 143 0 92 -3 146 -9 143 -5 -4
-6 -1 0 8 11 18 13 119 2 119 -5 0 -6 6 -1 13 11 17 11 88 1 110 -5 9 -5 17 0
17 4 0 8 23 8 50 0 28 -4 50 -9 50 -4 0 -5 6 0 13 12 20 11 740 -1 756 -8 11
-8 13 0 8 14 -8 14 205 -1 215 -7 5 -6 8 1 8 13 0 13 328 0 349 -6 10 -6 12 2
7 8 -5 10 35 9 139 -1 80 0 145 3 145 3 0 5 147 4 328 0 186 4 332 9 340 6 7
6 12 0 12 -5 0 -9 9 -10 20 -1 12 3 18 9 14 7 -4 7 0 -1 13 -7 14 -7 23 2 33
9 10 9 14 -1 17 -10 4 -10 8 -1 19 9 11 8 14 -2 14 -9 0 -10 3 -4 8 6 4 11 53
12 112 1 58 2 167 3 243 1 97 5 137 13 137 8 0 8 3 2 8 -12 8 -13 41 -2 60 5
7 4 12 -3 12 -7 0 -8 7 -3 18 5 9 8 81 8 159 0 89 4 143 10 143 6 0 4 4 -4 9
-7 5 -9 11 -4 14 5 3 9 53 8 111 0 58 3 106 6 106 4 0 7 35 8 77 1 48 6 80 14
85 9 6 8 8 -3 8 -9 0 -11 3 -5 8 6 4 10 16 9 27 -1 39 18 75 59 110 63 54 71
60 80 60 4 0 11 5 15 10 10 14 89 65 102 65 5 0 10 4 10 10 0 5 17 17 38 27
20 9 39 20 42 23 3 4 31 22 64 41 95 55 121 71 218 130 51 32 97 56 101 55 5
0 13 7 18 17 6 9 14 17 20 17 5 0 43 22 84 50 41 27 75 46 75 42 0 -4 4 -2 8
3 9 13 42 34 65 41 9 4 17 9 17 13 0 4 17 15 38 26 20 11 42 24 47 28 15 12
122 74 179 105 28 15 53 29 56 32 7 7 49 31 92 52 20 10 40 22 43 28 3 5 15
10 25 10 10 0 20 3 22 8 4 10 108 65 108 57 0 -4 14 5 31 19 17 14 37 26 44
26 7 0 21 7 29 16 9 8 16 13 16 9 0 -3 25 10 55 30 30 19 55 32 55 28 0 -3 8
1 18 9 9 8 62 40 117 70 55 30 118 66 140 78 22 12 75 41 118 62 42 22 80 44
83 49 3 5 10 7 15 4 5 -4 9 -1 9 4 0 6 7 11 15 11 8 0 15 5 15 10 0 6 6 10 13
10 6 0 25 14 41 30 16 16 49 37 75 47 44 16 143 66 226 113 22 13 54 30 70 38
17 9 32 19 35 22 3 4 23 17 45 29 22 12 54 29 70 39 17 10 53 31 80 46 28 16
58 36 68 44 9 8 17 12 17 8 0 -4 15 4 33 18 19 15 39 26 45 26 7 0 12 5 12 10
0 6 5 10 10 10 6 0 34 15 63 33 29 18 64 39 80 46 15 8 27 18 27 23 0 5 4 7 9
4 5 -3 14 1 21 9 7 8 16 12 21 9 5 -3 9 0 9 5 0 6 5 11 11 11 6 0 23 9 39 20
15 11 30 17 34 13 3 -3 6 -2 6 4 0 5 21 20 48 33 26 13 49 26 52 29 3 4 34 22
70 41 36 18 98 53 138 76 39 24 72 40 72 37 0 -3 9 2 20 12 11 10 20 15 20 12
0 -4 9 1 20 11 12 9 24 17 28 17 4 1 25 11 47 23 114 64 145 80 145 74 0 -4 4
-2 8 4 4 6 34 26 67 44 33 18 66 37 73 43 6 5 12 6 12 1 0 -5 4 -4 8 1 7 11
47 33 242 132 63 32 118 63 122 68 4 6 8 6 8 1 0 -5 7 -3 15 4 8 6 18 9 24 6
5 -3 11 -1 13 5 6 19 94 22 127 4 17 -8 31 -13 31 -10 0 4 7 -1 16 -9 8 -9 22
-16 30 -16 8 0 14 -5 14 -11 0 -5 5 -7 10 -4 6 3 10 2 10 -2 0 -5 12 -14 28
-21 40 -17 97 -53 100 -63 2 -5 8 -7 13 -3 5 3 9 0 9 -7 0 -7 3 -9 7 -6 3 4
17 -3 30 -15 13 -12 23 -17 23 -12 0 5 4 4 8 -1 4 -6 39 -31 77 -55 39 -25 79
-53 89 -62 11 -10 26 -18 33 -18 7 0 13 -4 13 -8 0 -5 16 -17 35 -28 19 -10
35 -22 35 -26 0 -5 5 -8 10 -8 11 0 125 -75 148 -97 6 -6 21 -15 32 -18 11 -3
20 -11 20 -16 0 -5 7 -9 15 -9 9 0 18 -7 21 -15 4 -8 11 -15 17 -15 5 0 25
-11 43 -25 18 -14 35 -25 39 -25 3 0 15 -8 26 -18 10 -11 32 -25 47 -33 15 -8
38 -24 52 -36 14 -13 28 -23 33 -23 4 0 32 -18 62 -40 30 -22 55 -38 55 -34 0
4 8 -2 18 -12 16 -18 38 -32 89 -59 13 -7 20 -15 16 -18 -3 -4 -1 -7 6 -7 11
0 62 -32 88 -57 7 -6 22 -15 33 -18 11 -3 20 -11 20 -16 0 -5 7 -9 15 -9 8 0
15 -4 15 -10 0 -5 7 -10 15 -10 8 0 15 -3 15 -8 0 -4 9 -12 20 -17 11 -6 79
-50 152 -100 73 -49 140 -93 150 -97 10 -4 18 -12 18 -18 0 -5 4 -10 10 -10
11 0 142 -90 152 -105 4 -5 8 -6 8 -1 0 5 8 2 18 -6 9 -8 73 -53 142 -99 69
-45 127 -85 130 -88 7 -8 41 -29 60 -38 8 -4 17 -9 20 -13 3 -3 30 -22 60 -42
30 -19 117 -76 194 -127 76 -50 142 -91 145 -91 4 0 17 -9 29 -20 12 -12 22
-17 22 -13 0 4 4 3 8 -3 4 -6 48 -36 97 -67 50 -31 95 -61 102 -67 7 -5 14
-10 17 -10 3 0 62 -37 126 -80 8 -5 80 -51 160 -101 183 -115 284 -182 288
-191 2 -5 8 -8 13 -8 9 0 66 -37 79 -50 3 -3 34 -25 69 -49 36 -24 74 -52 85
-62 11 -11 23 -19 28 -19 4 0 17 -8 27 -17 32 -29 50 -43 56 -43 6 0 48 -35
84 -70 15 -13 27 -23 29 -21 3 2 57 -39 87 -66 7 -7 18 -13 24 -13 5 0 14 -6
18 -13 4 -6 26 -26 48 -42 152 -113 160 -124 164 -245 5 -107 7 -129 14 -136
3 -4 2 -14 -3 -24 -5 -10 -7 -20 -4 -23 3 -3 7 -109 9 -236 2 -126 6 -234 9
-240 3 -5 0 -12 -6 -14 -10 -4 -9 -6 1 -6 11 -1 11 -4 1 -16 -7 -8 -9 -15 -4
-15 5 0 9 -220 9 -495 0 -272 3 -495 7 -495 4 0 3 -13 -2 -29 -5 -19 -4 -33 3
-40 8 -8 8 -11 0 -11 -7 0 -8 -14 -3 -40 4 -23 3 -43 -2 -46 -5 -3 -4 -12 3
-20 9 -11 8 -14 -2 -14 -11 0 -11 -2 1 -10 11 -7 11 -10 2 -10 -10 0 -10 -5
-1 -22 13 -24 13 -26 -3 -45 -7 -9 -7 -13 1 -13 7 0 8 -8 1 -25 -5 -14 -6 -25
-1 -25 4 0 8 -7 8 -15 0 -8 -5 -15 -11 -15 -7 0 -7 -3 -1 -8 12 -8 14 -242 2
-242 -5 0 -5 -6 0 -12 8 -13 10 -310 14 -2104 l3 -1051 -74 -75 c-119 -119
-246 -259 -281 -308 -34 -46 -45 -108 -27 -143 5 -10 11 -26 13 -36 8 -44 75
-134 161 -218 52 -51 98 -93 102 -93 4 0 27 -18 52 -40 24 -22 50 -40 56 -40
7 0 14 -7 18 -15 3 -10 12 -12 25 -7 19 7 107 80 176 147 18 17 46 41 64 55
18 14 40 32 49 41 10 9 44 33 77 55 126 82 342 328 320 364 -3 5 -2 10 3 10 6
0 14 24 18 53 8 54 10 65 13 70 1 1 4 29 7 62 2 33 6 65 8 72 3 7 1 15 -5 19
-6 4 -6 11 2 20 6 8 12 44 13 81 1 38 5 74 9 81 5 7 3 12 -5 12 -8 0 -9 3 -3
8 6 4 10 56 10 119 0 62 4 113 8 113 4 0 3 8 -2 18 -7 13 -6 23 1 30 9 9 9 12
-1 12 -10 0 -11 3 -2 14 9 10 9 16 1 21 -7 4 -7 11 -2 18 12 16 13 55 1 62 -5
4 -6 12 -2 18 13 20 12 347 -1 347 -7 0 -8 3 -1 8 13 9 14 122 2 122 -5 0 -4
7 3 15 9 11 9 15 1 15 -8 0 -9 5 -1 19 5 11 7 22 3 24 -5 3 -8 66 -8 141 0 75
-2 136 -5 136 -3 0 -6 37 -6 83 -2 90 -13 422 -14 422 -1 0 -2 86 -4 190 -1
105 -6 196 -10 203 -4 7 -2 12 4 12 6 0 8 5 4 12 -11 17 -12 88 -2 88 5 0 6 6
2 12 -5 7 -9 103 -10 213 -4 347 -9 465 -18 465 -5 0 -4 6 1 13 13 15 13 47 0
47 -6 0 -6 5 0 13 10 12 9 80 -2 97 -3 5 -1 11 5 15 7 4 7 12 0 25 -7 13 -7
21 0 25 6 4 8 10 5 15 -3 5 -7 164 -9 354 -3 190 -7 350 -11 356 -3 5 -1 10 5
10 6 0 8 5 4 12 -4 6 -8 124 -9 263 -1 138 -5 256 -9 263 -4 7 -3 12 2 12 10
0 9 61 -2 78 -4 7 -2 12 5 12 9 0 9 3 0 14 -8 10 -9 16 -1 21 6 3 7 12 3 18
-4 7 -8 61 -9 122 -4 162 -19 417 -29 490 -3 22 -7 54 -8 70 -2 17 -6 36 -10
43 -5 6 -6 12 -4 12 4 0 -9 66 -29 150 -4 14 -7 33 -8 42 -1 10 -5 21 -9 24
-4 4 -7 14 -7 23 0 19 -38 150 -51 174 -5 10 -7 22 -4 26 2 5 -2 14 -10 21 -8
7 -12 16 -10 21 3 4 1 16 -4 26 -5 10 -24 47 -41 83 -18 36 -41 73 -51 83 -11
10 -19 24 -19 32 0 8 -3 15 -7 15 -5 1 -35 25 -68 55 -33 31 -68 58 -77 61
-10 3 -18 10 -18 15 0 6 -4 8 -9 5 -5 -3 -11 1 -15 9 -3 8 -12 15 -21 15 -8 0
-15 3 -15 8 0 4 -20 18 -45 32 -25 14 -45 28 -45 32 0 5 -7 8 -15 8 -8 0 -15
5 -15 10 0 6 -7 10 -15 10 -8 0 -15 5 -15 10 0 6 -5 10 -12 10 -6 0 -26 11
-45 26 -18 14 -33 21 -33 17 0 -4 -4 -3 -8 4 -4 6 -43 35 -87 64 -44 28 -82
55 -85 59 -3 5 -12 10 -20 12 -8 2 -20 8 -27 13 -28 23 -47 35 -233 160 -107
72 -196 133 -198 138 -2 4 -9 7 -16 7 -7 0 -21 8 -32 18 -27 24 -111 82 -119
82 -3 0 -11 5 -18 10 -7 6 -43 33 -82 60 -38 27 -76 54 -82 60 -7 6 -13 8 -13
5 0 -4 -7 0 -15 7 -33 30 -45 38 -55 38 -5 0 -10 5 -10 10 0 6 -7 10 -15 10
-8 0 -15 5 -15 10 0 6 -6 10 -14 10 -8 0 -16 4 -18 8 -3 9 -89 69 -101 71 -4
0 -19 12 -33 26 -14 14 -29 25 -34 25 -5 0 -15 6 -22 13 -22 20 -71 53 -90 60
-10 3 -18 11 -18 17 0 5 -7 10 -15 10 -8 0 -15 4 -15 9 0 5 -9 12 -19 16 -11
3 -33 18 -49 33 -16 15 -42 34 -58 42 -15 8 -36 22 -45 30 -29 25 -42 34 -96
70 -29 18 -53 37 -53 42 0 5 -4 6 -10 3 -5 -3 -10 -1 -10 4 0 6 -6 11 -13 11
-7 0 -24 10 -38 23 -14 12 -32 27 -41 32 -65 42 -147 98 -168 115 -14 11 -31
20 -37 20 -7 0 -13 5 -13 10 0 6 -7 10 -15 10 -8 0 -15 4 -15 9 0 5 -10 13
-22 17 -13 4 -25 10 -28 13 -3 4 -27 20 -54 36 -27 17 -65 40 -85 53 -20 12
-45 26 -57 31 -11 5 -27 15 -35 23 -8 7 -31 22 -51 33 -21 11 -38 23 -38 28 0
4 -4 6 -9 2 -5 -3 -12 -1 -15 3 -3 5 -47 33 -97 63 -50 30 -103 62 -118 71
-14 10 -45 28 -68 40 -24 12 -43 26 -43 30 0 4 -6 8 -13 8 -7 0 -23 9 -35 20
-12 11 -23 19 -24 18 -2 -2 -21 8 -43 21 -22 14 -42 25 -45 26 -3 0 -31 18
-62 38 -31 20 -61 37 -66 37 -5 0 -17 9 -27 20 -10 11 -23 20 -30 20 -6 0 -22
10 -35 23 -14 12 -25 20 -25 19 0 -7 -55 21 -55 28 0 3 -16 12 -35 19 -19 7
-35 17 -35 22 0 5 -7 9 -15 9 -8 0 -15 3 -15 8 0 4 -23 18 -51 32 -28 14 -54
31 -56 37 -3 7 -9 10 -14 8 -4 -3 -17 2 -27 12 -10 10 -25 19 -33 21 -7 2 -16
7 -19 10 -3 4 -12 8 -20 10 -8 2 -16 8 -18 13 -2 5 -10 9 -17 9 -8 0 -21 7
-29 16 -9 8 -16 13 -16 9 0 -3 -13 3 -29 14 -15 11 -31 18 -35 14 -3 -3 -6 -1
-6 6 0 7 -4 10 -9 6 -5 -3 -12 -1 -16 5 -3 5 -35 24 -70 42 -36 17 -65 35 -65
40 0 4 -7 8 -15 8 -8 0 -36 14 -62 30 -26 17 -51 30 -56 30 -4 0 -28 14 -52
30 -24 17 -51 30 -59 30 -9 0 -16 4 -16 9 0 5 -16 15 -35 22 -19 7 -35 17 -35
22 0 4 -4 6 -9 2 -5 -3 -17 2 -25 11 -9 8 -16 12 -16 8 0 -3 -7 -1 -15 6 -8 7
-15 10 -15 7 0 -4 -18 0 -41 8 -23 8 -45 13 -49 10 -5 -3 -11 -1 -15 5 -8 13
-285 14 -285 0z"/>
<path d="M10567 16424 c-3 -5 -29 -8 -59 -8 -29 1 -57 -1 -63 -5 -5 -3 -17 -6
-25 -7 -8 0 -22 -3 -30 -6 -8 -4 -24 -9 -35 -14 -11 -4 -26 -6 -34 -5 -7 1
-10 -2 -7 -7 3 -5 -10 -13 -29 -16 -19 -4 -35 -10 -35 -14 0 -9 -70 -37 -82
-34 -5 1 -8 -2 -8 -7 0 -5 -10 -12 -22 -16 -13 -4 -25 -9 -28 -10 -3 -1 -15
-6 -27 -10 -13 -4 -23 -12 -23 -18 0 -6 -3 -7 -6 -4 -4 4 -19 -2 -33 -12 -14
-10 -28 -18 -31 -18 -5 1 -242 -112 -302 -144 -21 -11 -38 -17 -38 -12 0 4 -4
3 -8 -3 -7 -11 -157 -84 -173 -84 -5 0 -9 -4 -9 -10 0 -5 -3 -9 -7 -8 -5 2
-28 -6 -53 -16 -25 -11 -47 -20 -50 -21 -3 -1 -21 -8 -40 -16 -19 -7 -38 -12
-42 -11 -5 1 -8 -3 -8 -8 0 -5 -3 -9 -7 -8 -8 1 -16 -1 -98 -33 -75 -30 -86
-35 -135 -57 -25 -11 -52 -22 -60 -24 -8 -2 -17 -5 -20 -8 -8 -8 -152 -75
-161 -75 -4 0 -14 -6 -21 -12 -6 -7 -18 -13 -25 -13 -15 0 -55 -21 -64 -33 -3
-5 -8 -8 -10 -6 -2 1 -51 -21 -109 -49 -58 -28 -108 -50 -111 -49 -4 1 -16 -6
-27 -16 -12 -11 -26 -16 -31 -12 -6 3 -11 2 -11 -3 0 -9 -39 -30 -51 -28 -4 0
-16 -8 -28 -18 -12 -11 -21 -16 -21 -12 0 4 -12 -1 -27 -12 -16 -11 -31 -20
-36 -21 -4 0 -43 -19 -87 -41 -44 -22 -83 -40 -87 -41 -5 0 -16 -8 -25 -16
-10 -9 -18 -13 -18 -8 0 4 -6 3 -12 -3 -7 -5 -74 -40 -148 -78 -74 -37 -137
-71 -140 -74 -5 -7 -64 -31 -77 -33 -4 0 -17 -9 -27 -19 -10 -9 -23 -15 -28
-12 -4 3 -8 2 -8 -3 0 -4 -26 -21 -57 -36 -68 -33 -96 -49 -104 -60 -3 -5 -8
-8 -10 -7 -8 4 -59 -24 -59 -32 0 -4 -5 -8 -11 -8 -6 0 -25 -11 -44 -26 -35
-26 -71 -91 -80 -145 -3 -17 -9 -39 -14 -48 -4 -9 -7 -23 -6 -31 1 -8 -2 -19
-5 -25 -3 -5 -8 -28 -9 -49 -2 -22 -5 -49 -8 -60 -5 -23 -10 -68 -18 -166 -3
-36 -8 -87 -11 -115 -3 -27 -6 -77 -7 -110 -1 -33 -6 -63 -12 -67 -6 -5 -5 -8
3 -8 7 0 10 -5 6 -11 -7 -12 -11 -77 -15 -226 -2 -56 -6 -80 -13 -76 -6 3 -6
0 1 -7 8 -9 9 -19 2 -32 -7 -12 -6 -18 1 -18 6 0 8 -5 5 -10 -4 -6 -8 -98 -9
-204 -2 -107 -6 -199 -10 -205 -4 -6 -1 -11 6 -11 8 0 9 -3 3 -8 -14 -10 -17
-32 -4 -32 7 0 8 -5 2 -12 -5 -7 -8 -167 -8 -355 0 -189 -3 -343 -7 -343 -4 0
-3 -13 2 -30 5 -16 6 -30 2 -30 -9 0 -6 -105 3 -119 3 -6 3 -11 -2 -11 -4 0
-9 -399 -11 -888 l-3 -887 61 -55 c34 -30 67 -60 73 -65 7 -6 41 -35 76 -64
35 -29 70 -58 77 -64 17 -15 25 -22 99 -77 33 -25 62 -47 65 -50 3 -3 22 -16
42 -30 21 -14 38 -28 38 -32 0 -5 5 -8 10 -8 6 0 16 -5 23 -10 7 -6 53 -40
102 -76 50 -36 98 -72 108 -80 9 -7 22 -14 27 -14 6 0 13 -7 16 -15 4 -8 10
-12 15 -9 5 3 9 1 9 -3 0 -5 18 -19 40 -33 22 -14 40 -28 40 -33 0 -4 4 -6 9
-3 5 4 11 2 13 -2 1 -5 35 -31 73 -57 39 -27 72 -52 73 -57 2 -4 9 -8 15 -8 7
0 27 -14 46 -30 18 -17 37 -30 42 -30 4 0 14 -6 21 -13 7 -7 26 -21 43 -31 16
-11 34 -23 40 -28 30 -25 166 -118 173 -118 4 0 14 -9 22 -19 7 -11 17 -18 20
-16 4 2 16 -3 26 -13 10 -9 31 -23 47 -31 15 -8 27 -18 27 -23 0 -4 6 -8 14
-8 8 0 16 -3 18 -7 4 -9 65 -53 73 -53 3 0 15 -9 27 -20 12 -11 28 -20 35 -20
7 0 13 -5 13 -11 0 -5 4 -8 9 -5 5 3 11 -1 15 -9 3 -8 12 -15 21 -15 8 0 15
-4 15 -10 0 -5 11 -12 25 -16 14 -3 25 -10 25 -15 0 -5 8 -13 18 -16 9 -4 60
-34 112 -68 134 -87 154 -99 159 -96 2 1 7 -1 10 -6 8 -11 87 -63 121 -79 8
-4 29 -18 46 -31 17 -13 35 -23 41 -23 5 0 18 -8 29 -17 10 -10 37 -28 59 -40
58 -32 104 -60 155 -93 25 -17 57 -36 73 -42 15 -7 27 -16 27 -20 0 -4 6 -8
14 -8 8 0 22 -7 30 -16 9 -8 16 -13 16 -9 0 3 6 1 13 -5 31 -26 86 -58 91 -52
3 3 6 1 6 -5 0 -6 8 -13 18 -16 9 -4 35 -17 57 -31 70 -44 75 -47 75 -39 0 4
4 3 8 -3 8 -13 132 -86 132 -78 0 3 14 -4 30 -16 17 -12 30 -18 30 -13 0 4 4
3 8 -3 4 -6 22 -16 40 -22 28 -10 35 -8 57 12 14 13 25 26 25 29 0 3 5 18 12
34 13 33 17 48 20 86 1 15 5 27 9 27 4 0 6 67 5 148 -2 140 -4 151 -28 193
-27 46 -99 119 -118 119 -5 0 -10 4 -10 9 0 6 -13 18 -29 27 -17 10 -27 22
-24 28 3 6 3 8 -2 4 -4 -4 -24 5 -44 21 -20 15 -44 31 -53 34 -10 4 -18 11
-18 16 0 5 -9 13 -20 16 -11 4 -32 17 -45 31 -13 13 -28 24 -34 24 -5 0 -16 6
-23 13 -7 7 -40 30 -73 52 -33 21 -63 43 -67 49 -4 6 -8 7 -8 3 0 -5 -7 -2
-15 5 -32 29 -45 38 -53 38 -5 0 -17 9 -27 20 -10 11 -20 18 -23 16 -2 -3 -13
4 -25 15 -11 10 -26 19 -33 19 -6 0 -15 7 -18 16 -3 8 -10 12 -16 9 -5 -3 -10
-1 -10 4 0 6 -5 11 -10 11 -6 0 -16 5 -23 10 -25 21 -167 109 -167 104 0 -3
-7 1 -15 8 -34 31 -45 38 -45 31 0 -4 -4 -3 -8 3 -4 6 -22 19 -39 28 -18 9
-33 21 -33 26 0 6 -5 10 -10 10 -13 0 -63 35 -313 219 -109 80 -220 160 -245
178 -26 18 -51 36 -57 40 -5 5 -37 28 -70 51 -33 23 -78 55 -100 72 -22 16
-47 33 -55 37 -8 3 -17 9 -20 12 -3 3 -25 20 -50 36 -25 17 -51 36 -58 43 -7
6 -20 12 -28 12 -8 0 -14 3 -14 8 0 4 -20 20 -45 35 -25 16 -45 32 -45 36 0 4
-6 8 -13 8 -12 0 -117 70 -128 86 -3 5 -9 8 -13 8 -10 -2 -240 152 -249 167
-4 6 -12 12 -17 12 -5 0 -36 17 -68 38 -57 37 -58 39 -57 82 0 25 3 50 6 55 3
6 6 34 5 63 -1 28 2 52 5 52 3 0 7 26 8 58 4 77 8 137 11 137 3 0 11 144 13
237 1 49 4 88 7 88 5 0 6 14 11 257 2 84 8 153 12 153 4 0 3 9 -3 20 -6 11 -7
20 -3 20 4 0 9 57 10 128 3 248 8 342 18 342 7 0 7 3 0 8 -12 9 -19 42 -8 42
4 0 8 77 8 170 0 107 4 170 10 170 6 0 3 5 -5 10 -8 5 -10 10 -5 10 6 0 11 64
12 168 0 92 3 182 6 200 2 17 0 32 -5 32 -5 0 -6 6 -1 13 4 6 8 32 9 57 1 25
5 104 9 175 4 72 8 164 10 205 2 41 4 75 5 75 1 0 4 25 6 55 8 112 12 155 14
155 1 0 3 23 5 50 2 28 8 79 14 115 6 36 13 81 16 100 18 130 35 165 104 213
48 33 151 97 157 97 2 0 25 13 53 29 27 16 52 27 55 24 3 -4 6 -1 6 6 0 7 5 9
10 6 6 -3 10 -2 10 3 0 5 15 16 33 23 17 7 58 28 90 46 33 18 63 30 68 27 5
-3 9 0 9 5 0 6 7 11 15 11 8 0 15 5 15 10 0 6 5 10 10 10 13 0 104 42 110 51
3 4 14 9 25 11 11 1 22 5 25 9 8 8 77 39 89 39 6 0 11 4 11 9 0 7 9 12 48 21
4 1 18 8 32 16 38 21 124 57 133 56 4 -1 7 2 7 8 0 6 3 9 8 8 7 -1 15 2 105
41 27 12 54 18 59 14 6 -3 8 -2 5 4 -4 6 12 16 35 22 23 7 53 18 67 24 14 6
29 11 34 12 4 2 9 4 12 5 3 1 8 3 13 4 4 1 29 12 56 24 27 12 52 22 57 22 5 0
9 4 9 8 0 4 17 14 38 21 20 8 39 17 42 21 6 8 109 57 130 62 8 2 19 8 25 14 5
6 30 18 55 28 25 10 62 27 83 38 20 11 37 16 37 11 0 -4 4 -3 8 2 8 13 96 52
98 45 1 -3 11 3 21 13 11 9 22 15 25 12 3 -3 11 1 18 10 7 8 16 15 21 15 4 0
70 30 146 67 76 37 141 66 146 65 4 -1 7 3 7 9 0 5 4 8 9 4 5 -3 15 1 23 8 7
8 19 12 26 9 6 -2 12 2 12 9 0 7 3 10 6 7 3 -4 17 0 31 7 15 8 30 12 35 9 4
-3 8 -1 8 4 0 5 6 9 13 10 19 1 56 10 65 16 9 5 72 -9 107 -24 25 -10 47 -17
59 -18 5 0 12 -4 15 -9 3 -5 42 -27 86 -48 44 -22 83 -43 86 -48 3 -5 9 -8 13
-8 7 1 29 -10 116 -59 30 -17 63 -33 73 -37 9 -3 17 -9 17 -14 0 -5 8 -9 18
-9 9 0 28 -9 42 -20 14 -11 31 -20 38 -20 6 0 12 -5 12 -11 0 -5 4 -8 9 -4 5
3 12 1 16 -4 3 -5 18 -16 33 -24 15 -7 43 -23 62 -34 157 -90 261 -149 295
-167 22 -12 42 -24 43 -28 2 -5 10 -8 17 -8 7 0 15 -3 17 -7 3 -8 66 -44 115
-67 13 -6 23 -14 23 -18 0 -5 4 -8 9 -8 5 0 39 -18 75 -40 36 -22 68 -40 71
-40 3 0 11 -5 18 -10 22 -20 172 -119 192 -129 12 -5 27 -16 34 -25 7 -9 17
-16 22 -16 5 0 33 -16 64 -35 30 -20 63 -38 73 -42 9 -3 28 -14 42 -23 24 -17
41 -27 175 -100 33 -18 61 -37 63 -41 2 -4 10 -5 18 -2 8 3 14 0 14 -5 0 -6 9
-13 19 -17 11 -3 36 -17 55 -30 20 -13 36 -22 36 -19 0 3 15 -6 33 -20 19 -15
39 -26 45 -26 7 0 12 -4 12 -10 0 -5 5 -10 11 -10 6 0 47 -25 91 -55 44 -30
83 -55 87 -55 3 0 13 -9 21 -20 8 -11 19 -20 24 -20 13 0 95 -78 88 -84 -3 -3
-1 -6 5 -6 27 0 42 -107 46 -322 1 -84 6 -138 12 -138 6 0 3 -5 -5 -10 -13 -9
-13 -10 0 -10 13 0 13 -1 0 -10 -8 -5 -10 -10 -5 -10 6 0 10 -11 10 -25 0 -14
-4 -25 -8 -25 -5 0 -5 -5 -1 -12 15 -23 -1 -943 -16 -943 -1 0 -3 -31 -4 -70
-1 -38 -5 -76 -9 -82 -5 -8 -3 -13 3 -13 6 0 8 -5 4 -12 -4 -7 -9 -37 -11 -67
-4 -79 -11 -176 -12 -176 -3 0 -13 -240 -15 -327 0 -49 -4 -88 -8 -88 -11 0
-5 -23 7 -32 7 -5 6 -8 -1 -8 -9 0 -18 -124 -17 -232 1 -16 -4 -28 -9 -28 -6
0 -5 -7 2 -15 10 -12 10 -18 0 -30 -10 -12 -10 -15 0 -15 8 0 9 -6 5 -17 -4
-10 -9 -62 -11 -117 -1 -54 -5 -101 -8 -104 -3 -3 -1 -11 5 -18 7 -8 7 -14 -1
-19 -14 -9 -13 -27 3 -20 6 4 3 -1 -7 -9 -11 -9 -15 -16 -10 -16 6 0 9 -18 7
-42 -7 -87 -11 -133 -13 -133 -1 0 -3 -22 -5 -50 -2 -27 -4 -50 -5 -50 -2 0
-9 -33 -15 -65 -6 -41 -35 -120 -73 -200 -19 -41 -35 -78 -34 -82 1 -5 -3 -8
-10 -8 -6 0 -9 -3 -6 -6 4 -3 -5 -30 -18 -60 -13 -30 -24 -56 -24 -59 0 -3 -1
-7 -1 -10 -18 -73 30 -121 119 -120 17 0 32 -3 32 -7 0 -5 8 -8 18 -8 10 0 62
-23 117 -50 112 -57 181 -68 226 -37 13 9 20 17 15 17 -5 0 -3 6 3 14 7 8 14
24 16 36 5 25 60 91 69 83 3 -4 6 -2 6 4 0 5 9 21 21 34 12 13 40 46 63 73 22
27 49 58 59 68 9 10 15 18 12 18 -3 0 8 14 25 31 16 17 32 40 35 50 4 11 10
17 15 14 12 -7 15 34 15 187 0 76 2 138 5 138 3 0 5 200 5 445 0 245 4 445 8
445 4 0 4 8 -1 18 -5 9 -6 26 -2 37 4 11 4 28 -1 37 -6 10 -5 19 1 23 8 5 7
11 -1 21 -6 8 -7 14 -2 14 5 0 9 30 10 68 2 195 7 272 17 272 7 0 8 3 1 8 -13
9 -14 62 -1 62 6 0 5 5 -2 12 -6 6 -8 18 -4 27 4 9 8 91 7 183 0 93 2 168 5
168 3 0 5 147 5 328 0 180 3 339 7 355 4 16 2 27 -3 27 -6 0 -7 5 -4 10 12 19
13 100 2 100 -8 0 -7 4 1 12 7 7 8 17 1 30 -5 10 -6 18 -1 18 11 0 9 60 -2 79
-6 9 -5 12 1 8 6 -4 10 27 10 81 1 48 2 205 4 350 2 247 1 263 -17 282 -38 41
-120 112 -146 128 -16 9 -28 20 -28 24 0 4 -4 8 -10 8 -5 0 -21 10 -34 21 -28
24 -62 46 -88 55 -10 3 -18 11 -18 16 0 5 -4 6 -10 3 -5 -3 -10 -1 -10 4 0 6
-5 11 -11 11 -13 0 -99 59 -116 80 -7 8 -13 11 -13 7 0 -4 -6 -2 -14 5 -8 7
-11 18 -8 23 3 6 2 7 -3 3 -7 -7 -76 40 -127 86 -10 9 -20 16 -23 16 -9 0 -60
34 -76 52 -9 10 -19 15 -23 11 -3 -3 -6 -1 -6 5 0 7 -7 12 -15 12 -9 0 -18 7
-21 15 -4 8 -10 15 -14 15 -5 0 -82 49 -172 109 -90 60 -167 109 -172 109 -5
0 -12 4 -15 9 -12 18 -99 72 -105 66 -3 -4 -6 -1 -6 5 0 6 -22 23 -50 38 -27
15 -50 31 -50 36 0 4 -6 8 -13 8 -7 0 -23 9 -35 20 -12 12 -22 18 -22 15 0 -3
-6 -1 -12 5 -30 24 -118 80 -128 80 -5 0 -10 5 -10 10 0 6 -6 10 -13 10 -8 0
-22 9 -32 20 -10 11 -22 17 -26 14 -5 -3 -9 0 -9 5 0 6 -7 11 -15 11 -8 0 -15
5 -15 11 0 5 -4 8 -9 5 -5 -4 -11 -3 -13 2 -3 8 -95 72 -104 72 -8 0 -119 75
-122 83 -2 4 -8 5 -13 1 -5 -3 -9 0 -9 5 0 6 -5 11 -11 11 -6 0 -30 14 -54 30
-24 17 -48 30 -54 30 -5 0 -15 8 -20 18 -6 9 -11 13 -11 9 0 -4 -20 6 -44 23
-25 16 -47 30 -51 30 -4 0 -26 14 -50 30 -24 17 -47 30 -52 30 -5 0 -24 11
-43 23 -19 13 -79 47 -133 75 -53 28 -103 54 -110 59 -6 4 -14 8 -17 9 -14 2
-85 40 -88 47 -2 4 -9 7 -15 7 -15 0 -100 42 -108 53 -3 5 -8 8 -10 6 -9 -5
-49 13 -49 23 0 6 -3 9 -6 6 -5 -6 -29 2 -109 37 -34 15 -65 27 -80 31 -5 1
-35 12 -65 23 -30 12 -64 23 -75 26 -11 2 -33 7 -50 11 -16 3 -41 7 -55 8 -14
0 -28 5 -31 10 -4 4 -9 4 -12 0z"/>
<path d="M12127 10144 c-1 -1 -42 -5 -92 -8 -109 -8 -154 -13 -180 -20 -11 -2
-35 -5 -53 -5 -18 -1 -31 -4 -29 -8 3 -5 -7 -9 -21 -9 -45 -2 -98 -11 -109
-17 -6 -4 -24 -8 -42 -9 -17 -1 -31 -6 -31 -10 0 -3 -8 -7 -17 -7 -36 -1 -53
-5 -53 -11 0 -3 -8 -6 -17 -6 -36 -2 -78 -14 -81 -23 -2 -6 -10 -7 -18 -4 -8
3 -20 1 -27 -5 -6 -5 -20 -8 -29 -7 -10 2 -18 -1 -18 -6 0 -5 -3 -8 -7 -7 -11
2 -66 -13 -78 -22 -5 -4 -20 -6 -32 -5 -12 1 -20 -2 -18 -5 3 -4 -10 -11 -28
-15 -17 -4 -34 -9 -37 -10 -17 -6 -42 -16 -100 -36 -36 -12 -69 -26 -75 -31
-5 -4 -15 -8 -21 -8 -7 0 -25 -5 -41 -12 -15 -6 -30 -12 -33 -13 -3 0 -20 -9
-37 -18 -18 -10 -33 -15 -33 -13 0 3 -26 -9 -57 -25 -32 -16 -64 -29 -70 -29
-7 0 -13 -4 -13 -10 0 -5 -9 -10 -19 -10 -11 0 -22 -4 -26 -9 -3 -6 -31 -22
-62 -37 -61 -30 -141 -105 -143 -132 -5 -105 0 -132 32 -148 15 -8 30 -14 33
-14 3 0 6 0 8 -1 34 -11 324 -15 334 -5 11 11 24 7 17 -6 -5 -8 -3 -8 7 -2 8
5 25 9 39 10 14 0 50 5 80 9 30 5 61 8 68 6 6 -1 12 4 12 10 0 7 2 10 6 7 3
-3 26 1 52 9 26 8 59 16 73 18 15 1 31 5 35 8 11 6 100 18 229 31 33 3 87 9
120 12 33 4 90 7 128 8 37 0 67 5 67 11 0 5 4 4 9 -4 8 -12 12 -12 24 -2 10 8
17 9 22 1 4 -6 13 -7 23 -2 24 12 570 13 578 1 3 -5 10 -7 15 -3 9 5 85 -49
114 -80 26 -28 253 -166 273 -166 7 0 12 -4 12 -8 0 -4 24 -20 53 -35 28 -15
90 -52 137 -82 47 -30 98 -62 115 -71 31 -17 301 -219 370 -276 50 -41 325
-315 325 -323 0 -4 6 -12 13 -19 7 -8 29 -33 48 -56 18 -23 40 -48 47 -55 6
-8 12 -18 12 -23 0 -6 4 -12 9 -14 12 -5 131 -165 131 -177 0 -6 4 -11 8 -11
5 0 19 -19 32 -42 13 -24 26 -45 29 -48 11 -9 84 -149 87 -165 10 -54 19 -82
60 -172 25 -57 47 -109 48 -116 3 -12 8 -24 33 -87 8 -19 17 -46 19 -60 3 -14
11 -42 19 -62 8 -21 12 -38 9 -38 -4 0 -1 -7 6 -15 7 -9 10 -18 7 -22 -4 -3
-2 -12 4 -20 6 -7 8 -13 5 -13 -4 0 -3 -8 3 -17 8 -16 17 -63 26 -133 2 -14 4
-25 5 -25 1 0 4 -13 6 -30 2 -16 7 -46 10 -65 3 -19 6 -52 7 -72 1 -21 4 -38
7 -38 3 0 6 -9 6 -20 0 -11 -5 -20 -11 -20 -6 0 -5 -4 2 -8 6 -4 14 -39 16
-77 3 -39 6 -70 7 -70 2 0 5 -51 15 -220 2 -55 6 -117 8 -138 2 -21 0 -40 -4
-43 -5 -2 -5 -15 -1 -27 10 -27 9 -58 -1 -74 -5 -7 -4 -13 1 -13 5 0 9 -7 9
-15 0 -8 -4 -15 -9 -15 -5 0 -4 -8 1 -19 6 -10 8 -21 5 -24 -5 -5 -12 -60 -17
-144 -1 -18 -5 -33 -8 -33 -4 0 -9 -12 -12 -27 -3 -16 -8 -39 -12 -53 -4 -14
-8 -32 -9 -40 -1 -9 -6 -22 -11 -30 -5 -8 -10 -20 -11 -25 -1 -6 -11 -31 -22
-55 -11 -25 -23 -55 -26 -67 -4 -13 -12 -23 -18 -23 -6 0 -9 -3 -5 -6 6 -6
-89 -205 -116 -245 -9 -12 -14 -26 -11 -31 3 -4 0 -8 -5 -8 -6 0 -11 -7 -11
-15 0 -8 -5 -15 -12 -15 -6 0 -9 -3 -5 -6 3 -3 -5 -26 -19 -50 -13 -24 -36
-65 -50 -91 -75 -137 -159 -278 -166 -281 -4 -2 -8 -8 -8 -14 0 -5 -14 -30
-32 -56 -18 -26 -32 -49 -32 -52 0 -3 -6 -12 -13 -20 -6 -8 -42 -55 -79 -105
-36 -49 -87 -115 -113 -145 -56 -67 -222 -233 -270 -269 -19 -14 -48 -38 -64
-52 -16 -15 -41 -33 -55 -40 -15 -8 -29 -17 -32 -20 -6 -7 -121 -63 -135 -65
-5 -1 -23 -8 -40 -15 -36 -15 -33 -14 -70 -23 -16 -4 -41 -12 -55 -17 -14 -5
-41 -11 -60 -14 -19 -3 -42 -8 -50 -10 -33 -9 -176 -35 -225 -40 -22 -3 -56
-7 -75 -10 -32 -5 -95 -12 -161 -19 -14 -2 -31 -6 -38 -10 -6 -4 -11 -2 -11 4
0 7 -5 8 -12 3 -20 -12 -302 -11 -310 1 -5 7 -8 7 -8 -2 0 -8 -5 -10 -12 -5
-7 4 -27 8 -44 9 -30 1 -113 13 -144 21 -8 2 -31 5 -50 7 -19 1 -44 7 -55 12
-11 5 -32 9 -47 8 -16 0 -28 2 -28 5 0 4 -14 8 -31 9 -17 1 -40 7 -50 13 -11
5 -24 7 -29 4 -5 -3 -11 -1 -14 4 -3 5 -26 12 -51 15 -25 4 -45 12 -45 18 0 6
-3 9 -6 5 -4 -3 -19 0 -35 9 -16 8 -32 14 -36 14 -18 1 -73 25 -73 33 0 4 -4
5 -10 2 -5 -3 -15 -1 -22 5 -7 6 -35 25 -62 42 -45 29 -276 250 -276 263 0 8
-83 109 -92 113 -5 2 -8 9 -8 16 0 7 -9 21 -20 31 -11 10 -17 22 -14 26 3 5 1
9 -4 9 -4 0 -18 19 -31 43 -12 23 -26 49 -30 57 -20 35 -41 92 -41 110 0 11
-4 20 -8 20 -4 0 -7 12 -6 28 1 15 -1 32 -5 37 -3 6 -6 15 -8 20 -8 39 -13 66
-18 105 -3 25 -7 59 -10 75 -8 60 -9 171 0 184 5 9 4 12 -2 8 -11 -7 -8 373 3
448 3 22 7 58 9 80 5 50 12 90 15 90 1 0 3 16 5 35 1 19 3 36 5 38 1 1 3 10 4
20 1 9 6 33 11 52 5 19 9 42 11 50 6 37 28 117 42 150 3 8 6 20 7 25 0 6 6 20
13 32 7 12 13 30 15 40 5 24 30 77 40 84 5 3 8 9 8 13 -1 9 12 40 19 46 3 3
14 24 24 48 11 23 22 42 26 42 3 0 12 15 18 34 7 19 24 51 38 71 13 20 26 42
27 48 1 7 4 14 7 17 14 13 98 189 93 194 -4 3 -1 6 5 6 7 0 12 4 12 10 0 5 13
37 29 69 16 33 26 62 23 65 -3 4 1 6 8 6 7 0 10 3 7 6 -3 4 -1 16 5 28 7 11
13 23 14 26 0 3 4 12 7 20 28 66 54 149 50 154 -4 3 -2 6 3 6 6 0 18 32 29 70
11 39 22 70 26 70 4 0 6 8 4 18 -1 9 1 22 5 27 9 12 24 85 21 103 -1 6 2 12 8
12 5 0 8 11 6 25 -1 14 1 25 5 25 5 0 7 16 6 35 -1 19 2 36 6 37 19 7 29 311
15 418 -11 77 -19 115 -26 120 -4 3 -8 14 -8 25 -1 11 -7 34 -14 50 -7 17 -13
35 -14 40 -1 9 -10 34 -32 85 -3 8 -5 18 -5 23 1 4 -2 7 -8 7 -5 0 -10 9 -10
20 0 11 -4 20 -8 20 -5 0 -14 16 -22 35 -8 19 -16 35 -19 35 -4 0 -12 12 -18
28 -45 100 -269 289 -375 315 -27 7 -64 -16 -53 -33 3 -5 1 -11 -5 -15 -6 -4
-8 -10 -5 -15 3 -5 8 -26 11 -47 8 -64 27 -148 41 -183 4 -8 7 -23 8 -32 2
-10 4 -20 5 -23 1 -3 3 -8 5 -12 1 -5 4 -15 8 -23 3 -8 7 -24 9 -35 2 -11 5
-22 9 -25 4 -4 45 -131 54 -170 2 -8 4 -16 5 -17 3 -4 5 -11 15 -58 13 -56 12
-55 15 -57 5 -7 2 -158 -4 -203 -8 -58 -14 -90 -16 -90 -1 0 -3 -11 -4 -25 -5
-48 -19 -110 -25 -110 -3 0 -7 -10 -7 -22 -2 -23 -6 -40 -17 -68 -3 -8 -13
-40 -23 -70 -9 -30 -19 -59 -23 -65 -3 -5 -6 -12 -6 -15 -1 -3 -9 -23 -19 -45
-10 -22 -40 -92 -66 -157 -26 -64 -62 -137 -79 -161 -17 -25 -31 -50 -31 -56
0 -6 -3 -11 -7 -11 -5 0 -24 -25 -43 -55 -19 -30 -38 -55 -42 -55 -5 0 -8 -6
-8 -13 0 -7 -13 -28 -30 -47 -16 -19 -29 -40 -30 -47 0 -6 -3 -13 -7 -15 -8
-3 -60 -69 -93 -118 -23 -32 -89 -123 -106 -143 -7 -9 -14 -21 -14 -26 0 -5
-4 -11 -8 -13 -4 -1 -21 -21 -37 -43 -17 -22 -34 -44 -38 -50 -4 -5 -35 -48
-67 -95 -33 -47 -64 -90 -70 -97 -5 -7 -10 -17 -10 -23 0 -5 -4 -10 -9 -10 -5
0 -14 -13 -21 -30 -7 -16 -17 -30 -22 -30 -5 0 -6 -5 -3 -10 3 -6 -1 -13 -9
-16 -9 -3 -13 -10 -10 -15 3 -5 0 -9 -5 -9 -6 0 -11 -6 -11 -14 0 -8 -7 -22
-16 -30 -8 -9 -12 -16 -7 -16 4 0 3 -4 -3 -8 -13 -9 -127 -241 -127 -259 0 -7
-4 -13 -9 -13 -4 0 -8 -9 -8 -19 0 -11 -7 -26 -15 -34 -8 -8 -12 -17 -9 -20 3
-3 0 -16 -7 -29 -7 -12 -14 -25 -14 -28 -7 -30 -19 -67 -24 -75 -3 -5 -6 -14
-7 -20 -1 -5 -10 -37 -20 -70 -10 -33 -18 -67 -19 -75 0 -8 -3 -19 -6 -25 -4
-5 -9 -26 -13 -45 -6 -34 -11 -58 -21 -102 -3 -13 -8 -42 -11 -64 -2 -23 -7
-53 -10 -65 -5 -24 -11 -83 -20 -199 -7 -95 -7 -347 1 -359 3 -6 1 -11 -5 -11
-7 0 -8 -6 -2 -17 5 -10 10 -36 11 -58 4 -56 7 -76 14 -105 10 -36 18 -83 19
-100 0 -8 5 -21 10 -27 6 -7 8 -20 4 -28 -3 -8 -2 -15 2 -15 5 0 14 -24 22
-52 7 -29 16 -60 20 -68 4 -8 12 -26 18 -40 38 -94 139 -287 169 -325 5 -5 22
-31 38 -57 17 -27 33 -48 38 -48 4 0 7 -6 7 -12 0 -7 14 -27 30 -45 17 -18 30
-35 30 -38 0 -4 6 -12 13 -19 6 -7 32 -37 57 -67 53 -64 280 -291 334 -334 21
-16 47 -38 57 -48 10 -9 23 -17 28 -17 5 0 11 -3 13 -8 5 -12 135 -102 147
-102 6 0 11 -4 11 -8 0 -5 15 -16 33 -26 69 -37 114 -62 152 -85 22 -14 42
-25 45 -25 15 -2 126 -61 132 -70 4 -6 8 -8 8 -4 0 6 25 -4 178 -73 35 -16 70
-29 77 -29 8 0 17 -5 20 -10 4 -6 11 -8 16 -5 5 4 9 1 9 -4 0 -6 3 -10 8 -9 4
1 23 -4 42 -11 19 -8 40 -15 45 -15 6 -1 24 -8 40 -15 47 -20 168 -63 193 -68
12 -3 22 -9 22 -14 0 -5 7 -6 15 -3 8 4 22 1 30 -6 8 -7 15 -10 15 -7 0 3 24
-3 53 -13 28 -10 73 -21 99 -25 26 -4 46 -10 44 -14 -2 -3 17 -7 42 -7 26 -1
105 -4 175 -7 89 -4 126 -3 121 4 -4 8 0 7 14 0 14 -7 23 -8 27 -1 4 6 12 7
18 3 21 -13 68 -13 60 0 -4 7 1 6 10 -2 9 -7 17 -10 17 -5 0 5 42 10 93 11 50
1 110 4 132 7 22 2 58 5 80 7 22 2 43 8 47 14 5 6 8 5 8 -3 0 -9 6 -10 18 -4
9 4 27 7 40 6 12 0 22 2 22 5 0 4 17 7 38 8 20 1 57 7 82 13 25 6 59 13 75 16
17 3 44 9 61 15 17 5 40 11 50 14 53 10 200 61 206 70 4 5 8 7 8 3 0 -6 87 25
155 56 105 47 325 161 325 168 0 4 5 8 11 8 10 0 148 78 159 90 12 12 90 60
100 60 5 0 10 3 10 8 0 4 17 18 38 32 20 14 42 29 49 35 7 5 19 15 27 22 7 6
17 9 20 6 3 -4 6 -1 6 5 0 6 21 25 47 43 25 18 54 39 64 48 73 67 89 81 89 77
0 -3 20 14 44 37 24 23 70 67 102 98 72 69 175 178 229 243 22 27 45 54 50 60
6 6 30 38 54 71 25 33 57 77 73 97 15 20 28 40 28 43 0 6 41 66 51 75 3 3 12
20 20 38 8 17 16 32 19 32 4 0 17 22 31 50 13 27 28 50 32 50 5 0 5 5 2 10 -3
6 -2 10 4 10 5 0 11 6 13 13 2 6 28 59 58 117 29 58 54 107 55 110 0 3 5 12
10 20 37 58 171 364 227 520 11 30 22 62 25 70 3 8 7 20 8 25 4 14 36 117 42
135 8 20 13 41 17 65 2 11 5 21 6 23 1 1 4 7 5 12 1 6 4 13 5 18 2 4 4 12 5
17 2 6 4 12 5 15 2 8 8 32 15 65 3 16 10 34 14 40 4 5 6 20 5 33 0 12 3 22 7
22 5 0 8 3 7 8 -3 11 13 96 21 107 3 6 6 17 6 25 1 8 7 42 15 75 7 33 14 74
14 90 1 17 4 35 8 40 11 19 5 1010 -6 1017 -8 6 -8 8 0 8 11 0 13 35 2 45 -3
3 -2 24 2 45 4 22 3 43 -1 46 -5 3 -5 13 1 23 5 10 6 22 2 26 -4 3 -8 48 -9
98 -1 51 -2 92 -3 92 -1 0 -3 27 -5 60 -2 33 -7 92 -11 130 -4 39 -8 82 -8 98
0 15 -3 27 -6 27 -3 0 -7 19 -9 42 -1 23 -5 45 -9 48 -4 3 -7 12 -7 20 1 8 -3
21 -8 28 -5 6 -6 12 -2 12 4 0 0 11 -9 25 -9 14 -14 30 -11 35 3 5 1 11 -5 15
-6 4 -8 11 -5 16 4 5 1 9 -5 9 -6 0 -8 5 -5 10 3 6 1 10 -5 10 -6 0 -10 6 -9
13 1 6 -6 30 -15 52 -27 62 -149 309 -155 315 -4 3 -19 31 -35 63 -16 31 -32
57 -36 57 -4 0 -10 10 -14 23 -3 12 -15 32 -26 45 -11 12 -18 22 -15 22 4 0 0
7 -7 15 -29 32 -38 45 -38 52 0 5 -12 22 -27 39 -16 17 -50 57 -78 89 -72 84
-442 455 -454 455 -5 0 -13 9 -16 21 -4 11 -9 19 -11 16 -2 -2 -35 26 -73 62
-73 71 -90 86 -191 171 -36 30 -67 57 -70 60 -3 3 -25 21 -50 40 -25 19 -49
38 -55 43 -5 4 -23 18 -38 32 -15 14 -31 25 -35 25 -4 0 -23 14 -42 31 -19 17
-47 38 -62 47 -15 9 -28 20 -28 24 0 4 -7 8 -15 8 -8 0 -15 3 -15 8 0 4 -21
19 -47 32 -27 14 -49 28 -51 33 -2 4 -9 7 -15 7 -7 0 -41 14 -75 30 -35 17
-68 27 -73 24 -5 -3 -12 2 -15 10 -3 9 -10 13 -15 10 -5 -3 -9 0 -9 7 0 7 -3
10 -6 6 -4 -3 -21 1 -38 10 -17 10 -33 18 -36 18 -3 1 -27 11 -53 23 -27 12
-53 22 -58 22 -5 0 -9 5 -9 11 0 5 -4 8 -9 4 -5 -3 -12 -1 -16 5 -4 6 -11 8
-16 5 -5 -4 -9 -1 -9 4 0 6 -7 11 -15 11 -8 0 -15 5 -15 11 0 5 -4 8 -8 5 -8
-5 -30 4 -124 50 -27 13 -48 20 -48 17 0 -4 -5 -2 -12 5 -7 7 -20 12 -30 12
-10 0 -18 4 -18 8 0 4 -21 14 -47 21 -27 8 -55 18 -63 22 -27 13 -100 39 -100
35 0 -2 -24 4 -52 15 -29 10 -62 19 -74 19 -11 0 -24 3 -28 7 -7 8 -27 12 -71
17 -16 2 -30 5 -30 6 0 1 -13 4 -30 6 -16 2 -41 7 -55 11 -30 7 -54 10 -145
17 -38 3 -70 6 -70 6 0 2 -316 6 -318 4z"/>
</g>
</svg>
